<?xml version="1.0" encoding="iso-8859-1"?>
<!-- Generator: Adobe Illustrator 19.0.0, SVG Export Plug-In . SVG Version: 6.00 Build 0)  -->
<svg version="1.1" id="Capa_1" xmlns="http://www.w3.org/2000/svg" xmlns:xlink="http://www.w3.org/1999/xlink" x="0px" y="0px"
	 viewBox="0 0 470 470" style="enable-background:new 0 0 470 470;" xml:space="preserve">
<g>
	<path style="fill:#DB8F63;" d="M379.553,127.182h-56.517c-4.141,0-7.498-3.355-7.5-7.496h-15c-0.002,4.14-3.359,7.496-7.5,7.496
		H90.447l-2.645,15.295h294.396L379.553,127.182z"/>
	<path style="fill:#6F362D;" d="M315.536,119.682c0-4.142,3.357-7.5,7.5-7.5h53.923L363.83,36.25
		c-2.127-12.305-13.899-20.781-26.246-18.901L236.131,32.826c-0.75,0.114-1.512,0.114-2.262,0L132.416,17.349
		c-12.359-1.887-24.119,6.596-26.246,18.9l-13.129,75.932h199.996c4.143,0,7.5,3.358,7.5,7.5
		C300.536,119.686,315.536,119.686,315.536,119.682z"/>
	<path style="fill:#6F362D;" d="M82.431,341.048c-3.195-4.542-6.246-9.029-9.153-13.432c-0.324,0.315-0.653,0.628-0.972,0.948
		c-12.44,12.44-21.179,28.096-25.61,45.736c16.41-4.122,31.099-11.976,43.084-23.067C87.309,347.895,84.859,344.501,82.431,341.048z
		"/>
	<path style="fill:#DB8F63;" d="M380.221,351.233c11.985,11.091,26.674,18.945,43.084,23.067
		c-4.432-17.64-13.17-33.295-25.61-45.736c-0.319-0.319-0.647-0.632-0.972-0.948c-2.907,4.403-5.958,8.889-9.153,13.432
		C385.141,344.501,382.691,347.895,380.221,351.233z"/>
	<path style="fill:#DB8F63;" d="M165.847,327.15c-22.96-32.644-37.179-61.9-42.202-72.898H48.854
		c7.332,15.324,22.974,45.689,46.031,78.43c29.619,42.056,77.828,96.684,140.115,119.753c15.985-5.92,31.036-13.929,45.092-23.261
		C229.347,406.518,190.326,361.956,165.847,327.15z"/>
	<path style="fill:#E63A2A;" d="M421.151,254.252H140.247c6.476,13.369,19.378,38.021,38.052,64.532
		c24.671,35.021,64.646,80.378,116.188,100.135c34.06-25.971,61.42-58.928,80.813-86.5
		C398.292,299.729,413.851,269.519,421.151,254.252z"/>
	<path style="fill:#F5C9B0;" d="M78.893,172.476c4.145,0,7.502,3.358,7.502,7.5v59.275h42.097c0.023,0,0.046,0,0.07,0H227.5v-51.974
		h-99.07c-4.143,0-7.5-3.358-7.5-7.5s3.357-7.5,7.5-7.5H341.57c4.143,0,7.5,3.358,7.5,7.5s-3.357,7.5-7.5,7.5H242.5v51.974h141.105
		v-59.275c0-4.142,3.357-7.5,7.5-7.5c0.007,0,0.007-15,0.007-15H78.893V172.476z M146.964,201.903h37.619
		c2.695,0,5.184,1.446,6.518,3.788c1.333,2.342,1.308,5.22-0.067,7.538l-6.267,10.565c-1.4,2.362-3.896,3.675-6.457,3.675
		c-1.302,0-2.619-0.338-3.819-1.05c-3.313-1.965-4.562-6.083-3.02-9.516h-24.507c-4.143,0-7.5-3.358-7.5-7.5
		S142.821,201.903,146.964,201.903z M323.036,216.903h-24.507c1.542,3.433,0.294,7.55-3.02,9.516c-1.2,0.712-2.519,1.05-3.819,1.05
		c-2.561,0-5.056-1.313-6.457-3.675l-6.267-10.565c-1.375-2.318-1.4-5.196-0.067-7.538c1.334-2.342,3.822-3.788,6.518-3.788h37.619
		c4.143,0,7.5,3.358,7.5,7.5S327.179,216.903,323.036,216.903z"/>
	<path style="fill:#34150C;" d="M462.5,142.476h-65.079l-18.81-108.781c-3.508-20.296-22.933-34.284-43.289-31.174L235,17.825
		L134.678,2.521C114.326-0.587,94.897,13.4,91.389,33.695l-18.81,108.782H7.5c-4.143,0-7.5,3.358-7.5,7.5s3.357,7.5,7.5,7.5h71.393
		h312.22H462.5c4.143,0,7.5-3.358,7.5-7.5S466.643,142.476,462.5,142.476z M90.447,127.182h202.589c4.141,0,7.498-3.355,7.5-7.496
		c0-4.146-3.357-7.504-7.5-7.504H93.041L106.17,36.25c2.127-12.305,13.887-20.787,26.246-18.9l101.453,15.476
		c0.75,0.114,1.512,0.114,2.262,0l101.453-15.476c12.347-1.88,24.119,6.596,26.246,18.901l13.129,75.931h-53.923
		c-4.143,0-7.5,3.358-7.5,7.5c0.002,4.145,3.359,7.5,7.5,7.5h56.517l2.645,15.295H87.802L90.447,127.182z"/>
	<path style="fill:#34150C;" d="M146.964,216.903h24.507c-1.542,3.433-0.294,7.55,3.02,9.516c1.2,0.712,2.518,1.051,3.819,1.05
		c2.561,0,5.057-1.313,6.457-3.675l6.267-10.565c1.375-2.318,1.4-5.196,0.067-7.538c-1.334-2.342-3.822-3.788-6.518-3.788h-37.619
		c-4.143,0-7.5,3.358-7.5,7.5S142.821,216.903,146.964,216.903z"/>
	<path style="fill:#34150C;" d="M323.036,201.903h-37.619c-2.695,0-5.184,1.446-6.518,3.788c-1.333,2.342-1.308,5.22,0.067,7.538
		l6.267,10.565c1.401,2.362,3.896,3.675,6.457,3.675c1.301,0,2.619-0.338,3.819-1.05c3.313-1.965,4.562-6.083,3.02-9.516h24.507
		c4.143,0,7.5-3.358,7.5-7.5S327.179,201.903,323.036,201.903z"/>
	<path style="fill:#34150C;" d="M383.605,179.976v59.275H242.5v-51.974h99.07c4.143,0,7.5-3.358,7.5-7.5s-3.357-7.5-7.5-7.5H128.43
		c-4.143,0-7.5,3.358-7.5,7.5s3.357,7.5,7.5,7.5h99.07v51.974h-98.939c-0.023,0-0.046,0-0.07,0H86.395v-59.275
		c0-4.142-3.357-7.5-7.5-7.5c-4.144,0.001-7.5,3.358-7.5,7.5v59.275H60.353v-39.275c0-4.142-3.357-7.5-7.5-7.5s-7.5,3.358-7.5,7.5
		v39.275h-8.185c-2.513,0-4.859,1.259-6.249,3.353s-1.639,4.745-0.662,7.061c0.599,1.421,12.38,29.128,34.781,65.102
		c-1.135,1.044-2.254,2.105-3.34,3.191c-17.181,17.181-28.229,39.58-31.951,64.774c-0.347,2.348,0.438,4.721,2.116,6.399
		c1.417,1.417,3.329,2.197,5.304,2.197c0.363,0,0.73-0.026,1.096-0.081c23.23-3.431,44.073-13.105,60.653-28.059
		c14.974,19.004,30.61,35.915,46.685,50.448c27.818,25.148,57.053,43.264,86.894,53.844c0.811,0.288,1.658,0.431,2.506,0.431
		s1.695-0.144,2.506-0.431c21.208-7.519,42.106-18.864,62.41-33.814c0.178-0.117,0.345-0.248,0.512-0.379
		c8.091-5.985,16.09-12.525,23.971-19.65c16.076-14.533,31.711-31.443,46.685-50.448c16.58,14.954,37.422,24.628,60.653,28.059
		c0.365,0.054,0.731,0.081,1.096,0.081c1.975,0,3.887-0.78,5.304-2.197c1.678-1.678,2.463-4.051,2.116-6.399
		c-3.723-25.195-14.771-47.594-31.951-64.774c-1.086-1.085-2.205-2.147-3.339-3.19c22.402-35.974,34.183-63.682,34.782-65.103
		c0.977-2.316,0.728-4.967-0.662-7.061s-3.736-3.353-6.249-3.353h-8.186v-39.275c0-4.142-3.357-7.5-7.5-7.5s-7.5,3.358-7.5,7.5
		v39.275h-11.042v-59.275c0-4.14-3.354-7.496-7.493-7.5C386.963,172.476,383.605,175.834,383.605,179.976z M397.694,328.564
		c12.44,12.44,21.179,28.096,25.61,45.736c-16.41-4.122-31.099-11.976-43.084-23.067c2.47-3.338,4.92-6.732,7.348-10.185
		c3.195-4.542,6.246-9.029,9.153-13.432C397.047,327.932,397.375,328.245,397.694,328.564z M94.885,332.682
		c-23.058-32.74-38.699-63.105-46.031-78.43h74.791c5.023,10.999,19.242,40.254,42.202,72.898
		c24.479,34.806,63.5,79.368,114.245,102.023c-14.056,9.333-29.107,17.341-45.092,23.261
		C172.713,429.365,124.504,374.738,94.885,332.682z M72.306,328.564c0.319-0.319,0.648-0.632,0.972-0.948
		c2.907,4.402,5.958,8.889,9.153,13.432c2.428,3.453,4.879,6.847,7.348,10.185c-11.985,11.091-26.674,18.945-43.084,23.067
		C51.127,356.661,59.865,341.005,72.306,328.564z M294.488,418.918c-51.542-19.757-91.517-65.113-116.188-100.135
		c-18.675-26.511-31.576-51.163-38.052-64.532h280.904c-7.301,15.268-22.859,45.478-45.851,78.167
		C355.908,359.99,328.548,392.948,294.488,418.918z"/>
</g>
<g>
</g>
<g>
</g>
<g>
</g>
<g>
</g>
<g>
</g>
<g>
</g>
<g>
</g>
<g>
</g>
<g>
</g>
<g>
</g>
<g>
</g>
<g>
</g>
<g>
</g>
<g>
</g>
<g>
</g>
</svg>
