<?xml version="1.0" encoding="iso-8859-1"?>
<!-- Generator: Adobe Illustrator 19.0.0, SVG Export Plug-In . SVG Version: 6.00 Build 0)  -->
<svg version="1.1" id="Layer_1" xmlns="http://www.w3.org/2000/svg" xmlns:xlink="http://www.w3.org/1999/xlink" x="0px" y="0px"
	 viewBox="0 0 512 512" style="enable-background:new 0 0 512 512;" xml:space="preserve">
<path style="fill:#1F84CE;" d="M256,0L256,0C161.875,0,85.572,76.303,85.572,170.428v171.145C85.572,435.697,161.875,512,256,512
	l0,0c94.125,0,170.428-76.303,170.428-170.428V170.428C426.428,76.303,350.125,0,256,0z"/>
<path style="opacity:0.3;fill:#145587;enable-background:new    ;" d="M279.338,274.813l68.918-71.539
	c6.194-6.429,6.194-16.606,0-23.034l-80.015-83.057c-4.699-4.875-11.887-6.409-18.164-3.878
	c-6.279,2.532-10.392,8.624-10.392,15.395v124.953l-52.032-54.01c-6.36-6.599-16.868-6.798-23.473-0.438
	c-6.602,6.361-6.798,16.869-0.437,23.473l69.492,72.134l-69.492,72.134c-6.36,6.604-6.164,17.111,0.437,23.473
	c3.22,3.103,7.37,4.645,11.515,4.645c4.353,0,8.698-1.701,11.958-5.083l52.032-54.01v124.953c0,6.771,4.112,12.863,10.392,15.395
	c2.012,0.811,4.118,1.206,6.205,1.206c4.424-0.001,8.767-1.772,11.959-5.084l80.015-83.057c6.194-6.429,6.194-16.606,0-23.034
	L279.338,274.813z M272.887,149.859l40.365,41.899l-40.365,41.899V149.859L272.887,149.859z M272.887,399.768v-83.798l40.365,41.899
	L272.887,399.768z"/>
<path style="fill:#FFFFFF;" d="M279.338,256l68.918-71.539c6.194-6.429,6.194-16.606,0-23.034L268.241,78.37
	c-4.699-4.875-11.887-6.409-18.164-3.878c-6.279,2.532-10.392,8.624-10.392,15.395v124.953l-52.032-54.01
	c-6.36-6.599-16.868-6.798-23.473-0.438c-6.602,6.361-6.798,16.869-0.437,23.473l69.492,72.134l-69.492,72.134
	c-6.36,6.604-6.164,17.111,0.437,23.473c3.22,3.103,7.37,4.645,11.515,4.645c4.353,0,8.698-1.701,11.958-5.083l52.032-54.01V422.11
	c0,6.771,4.112,12.863,10.392,15.395c2.012,0.811,4.118,1.206,6.205,1.206c4.424-0.001,8.767-1.772,11.959-5.084l80.015-83.057
	c6.194-6.429,6.194-16.606,0-23.034L279.338,256z M272.887,131.046l40.365,41.899l-40.365,41.899V131.046L272.887,131.046z
	 M272.887,380.954v-83.798l40.365,41.899L272.887,380.954z"/>
<g>
</g>
<g>
</g>
<g>
</g>
<g>
</g>
<g>
</g>
<g>
</g>
<g>
</g>
<g>
</g>
<g>
</g>
<g>
</g>
<g>
</g>
<g>
</g>
<g>
</g>
<g>
</g>
<g>
</g>
</svg>
