<?xml version="1.0" encoding="iso-8859-1"?>
<!-- Generator: Adobe Illustrator 19.0.0, SVG Export Plug-In . SVG Version: 6.00 Build 0)  -->
<svg version="1.1" id="Layer_1" xmlns="http://www.w3.org/2000/svg" xmlns:xlink="http://www.w3.org/1999/xlink" x="0px" y="0px"
	 viewBox="0 0 496.2 496.2" style="enable-background:new 0 0 496.2 496.2;" xml:space="preserve">
<path style="fill:#F1F0EE;" d="M496.2,248.1C496.2,111.1,385.1,0,248.1,0S0,111.1,0,248.1s111.1,248.1,248.1,248.1
	S496.2,385.1,496.2,248.1z"/>
<path style="fill:#9B9187;" d="M479.2,248.1C479.2,120.5,375.7,17,248.1,17C120.5,17,17,120.5,17,248.1s103.5,231.1,231.1,231.1
	S479.2,375.7,479.2,248.1z"/>
<path style="fill:#3A3A38;" d="M222.4,323.2h76.5c7.6,0,13.4,1.6,17.4,4.7s6,7.4,6,12.7c0,4.8-1.6,8.8-4.8,12.2c-3.2,3.3-8,5-14.4,5
	H195.3c-7.3,0-13-2-17.1-6.1s-6.2-8.8-6.2-14.3c0-3.5,1.3-8.2,4-14s5.5-10.4,8.6-13.7c13-13.5,24.7-25,35.2-34.6
	c10.4-9.6,17.9-15.9,22.4-19c8-5.7,14.7-11.4,20-17.1c5.3-5.7,9.4-11.6,12.2-17.6s4.2-11.9,4.2-17.7c0-6.2-1.5-11.8-4.5-16.8
	c-3-4.9-7-8.8-12.2-11.5c-5.1-2.7-10.7-4.1-16.8-4.1c-12.8,0-22.9,5.6-30.2,16.8c-1,1.5-2.6,5.5-4.9,12c-2.3,6.5-4.9,11.6-7.8,15.1
	c-2.9,3.5-7.1,5.3-12.7,5.3c-4.9,0-8.9-1.6-12.2-4.8s-4.8-7.6-4.8-13.2c0-6.7,1.5-13.8,4.5-21.1s7.5-14,13.5-19.9
	c6-6,13.6-10.8,22.9-14.4s20-5.5,32.4-5.5c14.9,0,27.7,2.3,38.2,7c6.8,3.1,12.8,7.4,18,12.9s9.2,11.8,12.1,19s4.3,14.6,4.3,22.3
	c0,12.1-3,23.1-9,33s-12.1,17.7-18.4,23.3s-16.7,14.4-31.4,26.4c-14.7,12-24.8,21.3-30.2,28C227.3,316.4,224.9,319.5,222.4,323.2z"
	/>
<g>
	<path style="fill:#685F56;" d="M478.2,248.1C478.2,248.1,478.2,248.2,478.2,248.1h18C496.2,111.1,385.1,0,248.1,0v18
		C375.2,18,478.2,121,478.2,248.1z"/>
	<path style="fill:#685F56;" d="M18.1,248L18.1,248h-18c0,137,111.1,248.1,248.1,248.1v-18C121.1,478.1,18.1,375.1,18.1,248z"/>
</g>
<g>
	<path style="fill:#F1F0EE;" d="M248.1,478.1L248.1,478.1v18c137,0,248.1-111.1,248.1-248.1h-18
		C478.2,375.1,375.2,478.1,248.1,478.1z"/>
	<path style="fill:#F1F0EE;" d="M248.2,18L248.2,18V0C111.2,0,0.1,111.1,0.1,248.1h18C18.1,121,121.1,18,248.2,18z"/>
</g>
<path style="fill:#AFA79E;" d="M496.1,245.6H250.6V0.1c-0.8,0-1.7,0-2.5,0c-0.8,0-1.7,0-2.5,0v245.5H0.1c0,0.8,0,1.7,0,2.5
	c0,0.8,0,1.7,0,2.5h245.5v245.5c0.8,0,1.7,0,2.5,0c0.8,0,1.7,0,2.5,0V250.6h245.5c0-0.8,0-1.7,0-2.5
	C496.2,247.3,496.2,246.4,496.1,245.6z"/>
<g>
</g>
<g>
</g>
<g>
</g>
<g>
</g>
<g>
</g>
<g>
</g>
<g>
</g>
<g>
</g>
<g>
</g>
<g>
</g>
<g>
</g>
<g>
</g>
<g>
</g>
<g>
</g>
<g>
</g>
</svg>
