<?xml version="1.0" encoding="iso-8859-1"?>
<!-- Generator: Adobe Illustrator 19.0.0, SVG Export Plug-In . SVG Version: 6.00 Build 0)  -->
<svg version="1.1" id="Layer_1" xmlns="http://www.w3.org/2000/svg" xmlns:xlink="http://www.w3.org/1999/xlink" x="0px" y="0px"
	 viewBox="0 0 496.2 496.2" style="enable-background:new 0 0 496.2 496.2;" xml:space="preserve">
<path style="fill:#F1F0EE;" d="M496.2,248.1C496.2,111.1,385.1,0,248.1,0S0,111.1,0,248.1s111.1,248.1,248.1,248.1
	S496.2,385.1,496.2,248.1z"/>
<path style="fill:#9B9187;" d="M479.2,248.1C479.2,120.5,375.7,17,248.1,17C120.5,17,17,120.5,17,248.1s103.5,231.1,231.1,231.1
	S479.2,375.7,479.2,248.1z"/>
<path style="fill:#3A3A38;" d="M249.7,224.2c9,0,16.7-2.6,23.2-7.9c6.5-5.3,9.7-12.8,9.7-22.7c0-7.5-2.6-14-7.8-19.4
	c-5.2-5.4-12.2-8.1-20.9-8.1c-6,0-10.9,0.8-14.7,2.5c-3.9,1.7-6.9,3.9-9.2,6.6c-2.2,2.7-4.4,6.3-6.4,10.5c-2,4.3-3.8,8.3-5.5,12.2
	c-1,2.1-2.7,3.7-5.3,4.8c-2.5,1.2-5.5,1.8-8.8,1.8c-3.9,0-7.5-1.6-10.8-4.8s-4.9-7.4-4.9-12.7c0-5.1,1.5-10.4,4.6-16s7.6-11,13.5-16
	c5.9-5.1,13.3-9.2,22-12.2s18.6-4.6,29.4-4.6c9.5,0,18.1,1.3,25.9,3.9c7.8,2.6,14.6,6.3,20.4,11.2s10.1,10.5,13,17
	s4.4,13.4,4.4,20.8c0,9.8-2.1,18.1-6.4,25.1s-10.3,13.8-18.2,20.4c7.6,4.1,14,8.8,19.3,14.1c5.2,5.3,9.2,11.1,11.8,17.5
	s4,13.3,4,20.7c0,8.9-1.8,17.5-5.3,25.8c-3.6,8.3-8.8,15.7-15.7,22.2c-6.9,6.5-15.2,11.6-24.7,15.2s-20,5.5-31.6,5.5
	c-11.7,0-22.2-2.1-31.5-6.3c-9.3-4.2-16.9-9.4-22.9-15.7s-10.5-12.8-13.6-19.6s-4.6-12.3-4.6-16.7c0-5.7,1.8-10.2,5.5-13.7
	s8.2-5.2,13.7-5.2c2.7,0,5.4,0.8,7.9,2.4s4.2,3.5,5,5.8c5.1,13.6,10.5,23.7,16.3,30.2c5.8,6.6,14,9.9,24.5,9.9
	c6.1,0,11.9-1.5,17.5-4.5s10.3-7.4,13.9-13.3s5.5-12.6,5.5-20.4c0-11.4-3.1-20.4-9.4-26.9s-14.9-9.7-26.1-9.7c-2,0-5,0.2-9.1,0.6
	s-6.7,0.6-7.9,0.6c-5.4,0-9.5-1.3-12.5-4s-4.4-6.4-4.4-11.2c0-4.7,1.8-8.5,5.3-11.4s8.7-4.3,15.7-4.3H249.7z"/>
<g>
	<path style="fill:#F1F0EE;" d="M478.2,248.1C478.2,248.1,478.2,248.2,478.2,248.1h18C496.2,111.1,385.1,0,248.1,0v18
		C375.2,18,478.2,121,478.2,248.1z"/>
	<path style="fill:#F1F0EE;" d="M18.1,248L18.1,248h-18c0,137,111.1,248.1,248.1,248.1v-18C121.1,478.1,18.1,375.1,18.1,248z"/>
</g>
<g>
	<path style="fill:#685F56;" d="M248.1,478.1L248.1,478.1v18c137,0,248.1-111.1,248.1-248.1h-18
		C478.2,375.1,375.2,478.1,248.1,478.1z"/>
	<path style="fill:#685F56;" d="M248.2,18L248.2,18V0C111.2,0,0.1,111.1,0.1,248.1h18C18.1,121,121.1,18,248.2,18z"/>
</g>
<path style="fill:#AFA79E;" d="M496.1,245.6H250.6V0.1c-0.8,0-1.7,0-2.5,0c-0.8,0-1.7,0-2.5,0v245.5H0.1c0,0.8,0,1.7,0,2.5
	c0,0.8,0,1.7,0,2.5h245.5v245.5c0.8,0,1.7,0,2.5,0c0.8,0,1.7,0,2.5,0V250.6h245.5c0-0.8,0-1.7,0-2.5
	C496.2,247.3,496.2,246.4,496.1,245.6z"/>
<g>
</g>
<g>
</g>
<g>
</g>
<g>
</g>
<g>
</g>
<g>
</g>
<g>
</g>
<g>
</g>
<g>
</g>
<g>
</g>
<g>
</g>
<g>
</g>
<g>
</g>
<g>
</g>
<g>
</g>
</svg>
