<?xml version="1.0" encoding="iso-8859-1"?>
<!-- Generator: Adobe Illustrator 19.0.0, SVG Export Plug-In . SVG Version: 6.00 Build 0)  -->
<svg version="1.1" id="Layer_1" xmlns="http://www.w3.org/2000/svg" xmlns:xlink="http://www.w3.org/1999/xlink" x="0px" y="0px"
	 viewBox="0 0 512 512" style="enable-background:new 0 0 512 512;" xml:space="preserve">
<path style="fill:#E4EAF6;" d="M345.562,169.71c10.577-12.691,16.369-28.69,16.369-45.21V26.483H150.069v98.018
	c0,16.521,5.792,32.519,16.369,45.21l62.488,74.987c5.455,6.548,5.455,16.057,0,22.605l-62.488,74.987
	c-10.577,12.692-16.369,28.69-16.369,45.21v98.016h211.862v-98.018c0-16.521-5.792-32.519-16.369-45.211l-62.488-74.987
	c-5.455-6.548-5.455-16.057,0-22.605L345.562,169.71z"/>
<path style="fill:#D7DEED;" d="M233.609,342.289l15.623-74.987c1.364-6.548,1.364-16.057,0-22.605l-15.623-74.986
	c-2.644-12.691-4.092-28.69-4.092-45.21V26.483h-79.448v98.018c0,16.521,5.792,32.519,16.369,45.21l62.488,74.987
	c5.455,6.548,5.455,16.057,0,22.605l-62.488,74.987c-10.577,12.692-16.369,28.69-16.369,45.21v98.016h79.448v-98.018
	C229.517,370.978,230.966,354.98,233.609,342.289z"/>
<g>
	<path style="fill:#959CB3;" d="M370.759,512H141.241c-4.875,0-8.828-3.953-8.828-8.828v-17.655c0-4.875,3.953-8.828,8.828-8.828
		h229.517c4.875,0,8.828,3.953,8.828,8.828v17.655C379.586,508.047,375.634,512,370.759,512z"/>
	<path style="fill:#959CB3;" d="M141.241,0h229.517c4.875,0,8.828,3.953,8.828,8.828v17.655c0,4.875-3.953,8.828-8.828,8.828
		H141.241c-4.875,0-8.828-3.953-8.828-8.828V8.828C132.414,3.953,136.366,0,141.241,0z"/>
</g>
<g>
	<path style="fill:#707487;" d="M220.69,26.483V8.828c0-4.875,3.953-8.828,8.828-8.828h-88.276c-4.875,0-8.828,3.953-8.828,8.828
		v17.655c0,4.875,3.953,8.828,8.828,8.828h88.276C224.642,35.31,220.69,31.358,220.69,26.483z"/>
	<path style="fill:#707487;" d="M220.69,503.172v-17.655c0-4.875,3.953-8.828,8.828-8.828h-88.276c-4.875,0-8.828,3.953-8.828,8.828
		v17.655c0,4.875,3.953,8.828,8.828,8.828h88.276C224.642,512,220.69,508.047,220.69,503.172z"/>
</g>
<path style="fill:#FFD782;" d="M335.448,388.414H291.31c-14.626,0-26.483-11.857-26.483-26.483V252.365
	c0-8.2,2.854-16.145,8.073-22.471l46.626-56.52c4.791-5.75,0.703-14.479-6.782-14.479h-113.49c-7.485,0-11.573,8.729-6.782,14.479
	l46.626,56.52c5.218,6.326,8.073,14.27,8.073,22.471v109.566c0,14.626-11.857,26.483-26.483,26.483h-44.138
	c-4.875,0-8.828,3.953-8.828,8.828v61.793c0,4.875,3.953,8.828,8.828,8.828h158.897c4.875,0,8.828-3.953,8.828-8.828v-61.793
	C344.276,392.366,340.323,388.414,335.448,388.414z"/>
<g>
	<path style="fill:#FFC36E;" d="M229.517,387.499c0-0.239,0.015-0.472,0.015-0.712c-2.777,0.989-5.726,1.626-8.843,1.626h-44.138
		c-4.875,0-8.828,3.953-8.828,8.828v61.793c0,4.875,3.953,8.828,8.828,8.828h52.966V387.499z"/>
	<path style="fill:#FFC36E;" d="M192.473,173.376l46.626,56.52c5.218,6.325,8.072,14.27,8.072,22.47v24.821l2.059-9.885
		c1.364-6.548,1.364-16.057,0-22.605l-15.622-74.986c-0.704-3.379-1.309-7.019-1.838-10.814h-32.516
		C191.77,158.897,187.682,167.626,192.473,173.376z"/>
</g>
<g>
</g>
<g>
</g>
<g>
</g>
<g>
</g>
<g>
</g>
<g>
</g>
<g>
</g>
<g>
</g>
<g>
</g>
<g>
</g>
<g>
</g>
<g>
</g>
<g>
</g>
<g>
</g>
<g>
</g>
</svg>
