<?xml version="1.0" encoding="iso-8859-1"?>
<!-- Generator: Adobe Illustrator 19.0.0, SVG Export Plug-In . SVG Version: 6.00 Build 0)  -->
<svg version="1.1" id="Capa_1" xmlns="http://www.w3.org/2000/svg" xmlns:xlink="http://www.w3.org/1999/xlink" x="0px" y="0px"
	 viewBox="0 0 512 512" style="enable-background:new 0 0 512 512;" xml:space="preserve">
<circle style="fill:#008CC3;" cx="256" cy="256" r="256"/>
<path style="fill:#0074A3;" d="M272.924,511.429c125.778-8.211,226.76-107.246,238.014-232.17L435,203.321l-112.167,6.609v55.761
	L63,272.271l37.855,37.855l-23.355,5.88L272.924,511.429z"/>
<path style="fill:#FFCF35;" d="M374,174.931c-38.012,0-69.883,26.709-77.885,62.341H63v35h14.5v43.734h35v-43.734h29v43.734h35
	v-43.734h119.615c8.002,35.631,39.873,62.341,77.885,62.341c44.024,0,79.841-35.816,79.841-79.841S418.024,174.931,374,174.931z
	 M374,299.612c-24.726,0-44.841-20.116-44.841-44.841S349.274,209.93,374,209.93s44.841,20.116,44.841,44.841
	S398.726,299.612,374,299.612z"/>
<path style="fill:#FFB344;" d="M418.835,255c-0.124,24.62-20.186,44.612-44.835,44.612S329.289,279.62,329.165,255H63v17.271h14.5
	v43.734h35v-43.734h29v43.734h35v-43.734h119.615c8.002,35.631,39.873,62.341,77.885,62.341c43.948,0,79.711-35.693,79.835-79.612
	H418.835z"/>
<g>
</g>
<g>
</g>
<g>
</g>
<g>
</g>
<g>
</g>
<g>
</g>
<g>
</g>
<g>
</g>
<g>
</g>
<g>
</g>
<g>
</g>
<g>
</g>
<g>
</g>
<g>
</g>
<g>
</g>
</svg>
