<?xml version="1.0" encoding="UTF-8" standalone="no"?>
<!-- Generator: Adobe Illustrator 16.0.4, SVG Export Plug-In . SVG Version: 6.00 Build 0)  -->

<svg
   xmlns:dc="http://purl.org/dc/elements/1.1/"
   xmlns:cc="http://creativecommons.org/ns#"
   xmlns:rdf="http://www.w3.org/1999/02/22-rdf-syntax-ns#"
   xmlns:svg="http://www.w3.org/2000/svg"
   xmlns="http://www.w3.org/2000/svg"
   xmlns:sodipodi="http://sodipodi.sourceforge.net/DTD/sodipodi-0.dtd"
   xmlns:inkscape="http://www.inkscape.org/namespaces/inkscape"
   version="1.1"
   id="Layer_1"
   x="0px"
   y="0px"
   width="157.07201"
   height="16.523001"
   viewBox="0 0 157.072 16.523001"
   enable-background="new 0 0 212.6 30.06"
   xml:space="preserve"
   inkscape:version="0.48.4 r9939"
   sodipodi:docname="osrf-horizontal.svg"><metadata
     id="metadata67"><rdf:RDF><cc:Work
         rdf:about=""><dc:format>image/svg+xml</dc:format><dc:type
           rdf:resource="http://purl.org/dc/dcmitype/StillImage" /><dc:title></dc:title></cc:Work></rdf:RDF></metadata><defs
     id="defs65" /><sodipodi:namedview
     pagecolor="#ffffff"
     bordercolor="#666666"
     borderopacity="1"
     objecttolerance="10"
     gridtolerance="10"
     guidetolerance="10"
     inkscape:pageopacity="0"
     inkscape:pageshadow="2"
     inkscape:window-width="2507"
     inkscape:window-height="1576"
     id="namedview63"
     showgrid="false"
     fit-margin-top="0"
     fit-margin-left="0"
     fit-margin-right="0"
     fit-margin-bottom="0"
     inkscape:zoom="10.98777"
     inkscape:cx="4.8221931"
     inkscape:cy="32.597769"
     inkscape:window-x="1973"
     inkscape:window-y="24"
     inkscape:window-maximized="1"
     inkscape:current-layer="Layer_1" /><g
     id="g3"
     transform="translate(-46.686003,-8.2)"><path
       d="m 49.163,9.634 c -0.894,0 -1.342,1.632 -1.342,5.359 0,3.727 0.481,5.356 1.374,5.356 0.896,0 1.344,-1.63 1.344,-5.356 0,-3.727 -0.483,-5.359 -1.376,-5.359 m 0.016,11.828 c -1.82,0 -2.493,-2.241 -2.493,-6.469 0,-4.23 0.673,-6.47 2.493,-6.47 1.822,0 2.493,2.239 2.493,6.47 0,4.228 -0.671,6.469 -2.493,6.469"
       id="path5"
       inkscape:connector-curvature="0"
       style="fill:#7a7c7e" /><path
       d="m 55.438,12.713 c -0.378,0 -0.757,0.237 -1.085,0.557 v 6.559 c 0.396,0.376 0.74,0.576 1.152,0.576 0.81,0 0.998,-1.649 0.998,-3.838 -10e-4,-2.67 -0.275,-3.854 -1.065,-3.854 m 0.137,8.749 c -0.5,0 -0.894,-0.289 -1.223,-0.611 v 3.189 l -1.065,0.683 V 11.856 h 1.065 v 0.482 c 0.329,-0.378 0.793,-0.682 1.291,-0.682 1.513,0 1.943,1.883 1.943,4.875 0.001,3.137 -0.516,4.931 -2.011,4.931"
       id="path7"
       inkscape:connector-curvature="0"
       style="fill:#7a7c7e" /><path
       d="m 61.025,12.751 c -0.586,0 -1.033,0.95 -1.102,3.137 h 2.167 c -0.051,-1.811 -0.378,-3.137 -1.065,-3.137 m -1.119,4.194 c 0.036,2.062 0.345,3.42 1.136,3.42 0.567,0 0.809,-0.376 1.289,-1.218 l 0.74,0.61 c -0.481,0.948 -1.031,1.704 -2.045,1.704 -1.479,0 -2.168,-1.794 -2.168,-4.84 0,-3.227 0.792,-4.965 2.202,-4.965 1.376,0 2.098,1.738 2.098,5.035 v 0.253 h -3.252 z"
       id="path9"
       inkscape:connector-curvature="0"
       style="fill:#7a7c7e" /><path
       d="m 67.764,21.261 v -7.023 c 0,-1.129 -0.256,-1.524 -0.877,-1.524 -0.379,0 -0.791,0.233 -1.115,0.557 v 7.991 h -1.068 v -9.404 h 1.068 v 0.463 c 0.357,-0.358 0.805,-0.662 1.461,-0.662 1.168,0 1.596,0.949 1.596,2.511 v 7.093 h -1.065 z"
       id="path11"
       inkscape:connector-curvature="0"
       style="fill:#7a7c7e" /><path
       d="m 75.588,21.462 c -1.379,0 -2.051,-1.074 -2.291,-2.958 l 1.121,-0.269 c 0.258,1.648 0.652,2.114 1.186,2.114 0.705,0 1.098,-0.611 1.098,-1.486 0,-1.168 -0.496,-2.439 -1.631,-3.745 -1.291,-1.508 -1.65,-2.456 -1.65,-4.018 0,-1.413 0.756,-2.577 2.08,-2.577 1.393,0 1.924,0.984 2.27,2.472 l -1.117,0.341 c -0.328,-1.29 -0.602,-1.702 -1.186,-1.702 -0.621,0 -0.932,0.716 -0.932,1.361 0,1.001 0.24,1.794 1.379,3.116 1.305,1.507 1.906,2.923 1.906,4.59 -0.001,1.649 -0.86,2.761 -2.233,2.761"
       id="path13"
       inkscape:connector-curvature="0"
       style="fill:#7a7c7e" /><path
       d="m 81.414,12.751 c -0.84,0 -1.221,1.218 -1.221,3.815 0,2.601 0.412,3.799 1.256,3.799 0.844,0 1.221,-1.198 1.221,-3.799 0,-2.597 -0.412,-3.815 -1.256,-3.815 m 0.018,8.711 c -1.529,0 -2.32,-1.684 -2.32,-4.896 0,-3.206 0.791,-4.909 2.32,-4.909 1.529,0 2.32,1.703 2.32,4.909 0,3.212 -0.791,4.896 -2.32,4.896"
       id="path15"
       inkscape:connector-curvature="0"
       style="fill:#7a7c7e" /><path
       d="m 88.291,21.261 v -0.463 c -0.359,0.359 -0.809,0.664 -1.461,0.664 -1.168,0 -1.598,-0.952 -1.598,-2.51 v -7.096 h 1.066 v 7.023 c 0,1.13 0.256,1.524 0.875,1.524 0.379,0 0.791,-0.233 1.117,-0.556 v -7.992 h 1.066 v 9.404 h -1.065 z"
       id="path17"
       inkscape:connector-curvature="0"
       style="fill:#7a7c7e" /><path
       d="m 94,13.004 c -0.293,-0.162 -0.498,-0.215 -0.826,-0.215 -0.396,0 -0.725,0.215 -0.963,0.499 v 7.973 h -1.066 v -9.404 h 1.066 v 0.463 c 0.326,-0.376 0.758,-0.662 1.271,-0.662 0.414,0 0.621,0.07 0.844,0.18 L 94,13.004 z"
       id="path19"
       inkscape:connector-curvature="0"
       style="fill:#7a7c7e" /><path
       d="m 97.078,21.462 c -1.445,0 -2.201,-1.794 -2.201,-4.84 0,-3.227 0.791,-4.965 2.217,-4.965 1.102,0 1.582,0.933 1.875,2.097 l -0.943,0.502 c -0.242,-0.877 -0.416,-1.505 -0.965,-1.505 -0.689,0 -1.102,1.165 -1.102,3.853 0,2.242 0.293,3.762 1.154,3.762 0.445,0 0.652,-0.41 1.029,-1.433 l 0.859,0.539 c -0.411,1.234 -0.995,1.99 -1.923,1.99"
       id="path21"
       inkscape:connector-curvature="0"
       style="fill:#7a7c7e" /><path
       d="m 102.203,12.751 c -0.586,0 -1.033,0.95 -1.1,3.137 h 2.164 c -0.048,-1.811 -0.376,-3.137 -1.064,-3.137 m -1.119,4.194 c 0.035,2.062 0.346,3.42 1.135,3.42 0.568,0 0.809,-0.376 1.289,-1.218 l 0.74,0.61 c -0.479,0.948 -1.029,1.704 -2.045,1.704 -1.479,0 -2.168,-1.794 -2.168,-4.84 0,-3.227 0.793,-4.965 2.203,-4.965 1.375,0 2.098,1.738 2.098,5.035 v 0.253 h -3.252 z"
       id="path23"
       inkscape:connector-curvature="0"
       style="fill:#7a7c7e" /><path
       d="m 110.748,9.829 h -0.584 v 4.481 h 0.584 c 0.998,0 1.598,-0.825 1.598,-2.277 0,-1.433 -0.6,-2.204 -1.598,-2.204 m 1.701,11.432 -1.324,-5.911 c -0.256,0.036 -0.582,0.036 -0.961,0.036 v 5.875 h -1.1 V 8.719 h 1.719 c 1.512,0 2.682,1.04 2.682,3.225 0,1.472 -0.518,2.439 -1.256,2.976 l 1.41,6.342 h -1.17 z"
       id="path25"
       inkscape:connector-curvature="0"
       style="fill:#7a7c7e" /><path
       d="m 116.951,12.751 c -0.842,0 -1.219,1.218 -1.219,3.815 0,2.601 0.412,3.799 1.254,3.799 0.844,0 1.223,-1.198 1.223,-3.799 0,-2.597 -0.414,-3.815 -1.258,-3.815 m 0.018,8.711 c -1.529,0 -2.318,-1.684 -2.318,-4.896 0,-3.206 0.789,-4.909 2.318,-4.909 1.529,0 2.32,1.703 2.32,4.909 0,3.212 -0.791,4.896 -2.32,4.896"
       id="path27"
       inkscape:connector-curvature="0"
       style="fill:#7a7c7e" /><path
       d="m 122.971,12.713 c -0.379,0 -0.758,0.237 -1.082,0.557 v 6.559 c 0.393,0.376 0.738,0.576 1.15,0.576 0.809,0 0.998,-1.649 0.998,-3.838 0,-2.67 -0.277,-3.854 -1.066,-3.854 m 0.136,8.749 c -0.498,0 -0.895,-0.289 -1.219,-0.611 v 0.41 h -1.066 V 8.88 l 1.066,-0.68 v 4.139 c 0.324,-0.378 0.789,-0.682 1.287,-0.682 1.514,0 1.945,1.883 1.945,4.875 10e-4,3.136 -0.516,4.93 -2.013,4.93"
       id="path29"
       inkscape:connector-curvature="0"
       style="fill:#7a7c7e" /><path
       d="m 128.695,12.751 c -0.844,0 -1.221,1.218 -1.221,3.815 0,2.601 0.412,3.799 1.254,3.799 0.842,0 1.223,-1.198 1.223,-3.799 0,-2.597 -0.414,-3.815 -1.256,-3.815 m 0.016,8.711 c -1.529,0 -2.316,-1.684 -2.316,-4.896 0,-3.206 0.787,-4.909 2.316,-4.909 1.533,0 2.322,1.703 2.322,4.909 0,3.212 -0.789,4.896 -2.322,4.896"
       id="path31"
       inkscape:connector-curvature="0"
       style="fill:#7a7c7e" /><path
       d="m 135.055,21.228 c -0.309,0.145 -0.637,0.234 -1.029,0.234 -0.98,0 -1.309,-0.736 -1.309,-1.865 v -6.722 h -0.756 v -1.019 h 0.756 V 8.88 L 133.75,8.2 v 3.656 h 1.289 v 1.019 h -1.289 v 6.687 c 0,0.537 0.205,0.826 0.498,0.826 0.311,0 0.551,-0.058 0.93,-0.253 l -0.123,1.093 z"
       id="path33"
       inkscape:connector-curvature="0"
       style="fill:#7a7c7e" /><path
       d="m 136.535,11.856 h 1.062 v 9.404 h -1.062 v -9.404 z m 0.569,-1.847 c -0.395,0 -0.74,-0.411 -0.74,-0.842 0,-0.466 0.346,-0.859 0.74,-0.859 0.394,0 0.701,0.394 0.701,0.859 0,0.431 -0.307,0.842 -0.701,0.842"
       id="path35"
       inkscape:connector-curvature="0"
       style="fill:#7a7c7e" /><path
       d="m 141.416,21.462 c -1.443,0 -2.201,-1.794 -2.201,-4.84 0,-3.227 0.793,-4.965 2.221,-4.965 1.098,0 1.582,0.933 1.871,2.097 l -0.943,0.502 c -0.24,-0.877 -0.41,-1.505 -0.963,-1.505 -0.688,0 -1.1,1.165 -1.1,3.853 0,2.242 0.293,3.762 1.15,3.762 0.447,0 0.652,-0.41 1.033,-1.433 l 0.857,0.539 c -0.409,1.234 -0.995,1.99 -1.925,1.99"
       id="path37"
       inkscape:connector-curvature="0"
       style="fill:#7a7c7e" /><path
       d="m 146.301,21.462 c -1.066,0 -1.686,-0.825 -1.994,-1.936 l 0.91,-0.557 c 0.293,0.967 0.602,1.418 1.1,1.418 0.639,0 0.963,-0.504 0.963,-1.131 0,-0.806 -0.137,-1.311 -1.271,-2.331 -1.049,-0.949 -1.617,-1.701 -1.617,-2.992 0,-1.271 0.758,-2.276 1.91,-2.276 1.031,0 1.58,0.7 1.906,1.703 l -0.959,0.556 c -0.225,-0.664 -0.482,-1.183 -1,-1.183 -0.498,0 -0.807,0.432 -0.807,1.095 0,0.695 0.191,1.165 1.254,2.113 1.135,1.004 1.635,1.898 1.635,3.206 -10e-4,1.291 -0.829,2.315 -2.03,2.315"
       id="path39"
       inkscape:connector-curvature="0"
       style="fill:#7a7c7e" /><polygon
       points="152.918,21.261 152.918,8.719 156.855,8.719 156.855,9.829 154.018,9.829 154.018,14.095 156.049,14.095 156.049,15.206 154.018,15.206 154.018,21.261 "
       id="polygon41"
       style="fill:#7a7c7e" /><path
       d="m 159.832,12.751 c -0.84,0 -1.223,1.218 -1.223,3.815 0,2.601 0.412,3.799 1.256,3.799 0.844,0 1.223,-1.198 1.223,-3.799 0,-2.597 -0.416,-3.815 -1.256,-3.815 m 0.018,8.711 c -1.529,0 -2.322,-1.684 -2.322,-4.896 0,-3.206 0.793,-4.909 2.322,-4.909 1.533,0 2.318,1.703 2.318,4.909 0,3.212 -0.785,4.896 -2.318,4.896"
       id="path43"
       inkscape:connector-curvature="0"
       style="fill:#7a7c7e" /><path
       d="m 166.709,21.261 v -0.463 c -0.361,0.359 -0.807,0.664 -1.459,0.664 -1.17,0 -1.602,-0.952 -1.602,-2.51 v -7.096 h 1.066 v 7.023 c 0,1.13 0.258,1.524 0.877,1.524 0.379,0 0.791,-0.233 1.117,-0.556 v -7.992 h 1.066 v 9.404 h -1.065 z"
       id="path45"
       inkscape:connector-curvature="0"
       style="fill:#7a7c7e" /><path
       d="m 172.625,21.261 v -7.023 c 0,-1.129 -0.26,-1.524 -0.879,-1.524 -0.379,0 -0.791,0.233 -1.119,0.557 v 7.991 h -1.064 v -9.404 h 1.064 v 0.463 c 0.363,-0.358 0.811,-0.662 1.463,-0.662 1.17,0 1.6,0.949 1.6,2.511 v 7.093 h -1.065 z"
       id="path47"
       inkscape:connector-curvature="0"
       style="fill:#7a7c7e" /><path
       d="m 178.398,13.288 c -0.395,-0.377 -0.738,-0.575 -1.152,-0.575 -0.807,0 -0.996,1.65 -0.996,3.837 0,2.671 0.275,3.854 1.064,3.854 0.381,0 0.76,-0.233 1.084,-0.556 v -6.56 z m 0,7.973 v -0.479 c -0.324,0.376 -0.791,0.681 -1.289,0.681 -1.514,0 -1.943,-1.885 -1.943,-4.876 0,-3.137 0.518,-4.929 2.012,-4.929 0.5,0 0.896,0.286 1.221,0.611 V 8.88 l 1.064,-0.68 v 13.061 h -1.065 z"
       id="path49"
       inkscape:connector-curvature="0"
       style="fill:#7a7c7e" /><path
       d="m 183.984,16.586 c -0.307,-0.196 -0.494,-0.323 -1.012,-0.323 -0.758,0 -0.947,0.771 -0.947,2.024 0,1.131 0.189,2.117 0.842,2.117 0.344,0 0.793,-0.215 1.117,-0.576 v -3.242 z m 0,4.675 v -0.446 c -0.375,0.378 -0.807,0.647 -1.322,0.647 -1.17,0 -1.719,-1.112 -1.719,-3.138 0,-2.133 0.688,-3.118 1.994,-3.118 0.432,0 0.758,0.126 1.047,0.342 v -1.542 c 0,-0.879 -0.289,-1.255 -0.877,-1.255 -0.393,0 -0.754,0.269 -1.27,0.825 L 181.2,12.733 c 0.637,-0.664 1.289,-1.076 1.977,-1.076 1.17,0 1.875,0.468 1.875,2.259 v 7.345 h -1.068 z"
       id="path51"
       inkscape:connector-curvature="0"
       style="fill:#7a7c7e" /><path
       d="m 189.299,21.228 c -0.311,0.145 -0.637,0.234 -1.031,0.234 -0.98,0 -1.307,-0.736 -1.307,-1.865 v -6.722 h -0.758 v -1.019 h 0.758 V 8.88 l 1.033,-0.68 v 3.656 h 1.283 v 1.019 h -1.283 v 6.687 c 0,0.537 0.205,0.826 0.496,0.826 0.309,0 0.551,-0.058 0.93,-0.253 l -0.121,1.093 z"
       id="path53"
       inkscape:connector-curvature="0"
       style="fill:#7a7c7e" /><path
       d="m 190.777,11.856 h 1.064 v 9.404 h -1.064 v -9.404 z m 0.567,-1.847 c -0.396,0 -0.74,-0.411 -0.74,-0.842 0,-0.466 0.344,-0.859 0.74,-0.859 0.398,0 0.705,0.394 0.705,0.859 0,0.431 -0.307,0.842 -0.705,0.842"
       id="path55"
       inkscape:connector-curvature="0"
       style="fill:#7a7c7e" /><path
       d="m 195.762,12.751 c -0.84,0 -1.219,1.218 -1.219,3.815 0,2.601 0.41,3.799 1.254,3.799 0.844,0 1.221,-1.198 1.221,-3.799 0,-2.597 -0.414,-3.815 -1.256,-3.815 m 0.015,8.711 c -1.529,0 -2.316,-1.684 -2.316,-4.896 0,-3.206 0.787,-4.909 2.316,-4.909 1.533,0 2.324,1.703 2.324,4.909 0.001,3.212 -0.79,4.896 -2.324,4.896"
       id="path57"
       inkscape:connector-curvature="0"
       style="fill:#7a7c7e" /><path
       d="m 202.691,21.261 v -7.023 c 0,-1.129 -0.26,-1.524 -0.877,-1.524 -0.379,0 -0.791,0.233 -1.117,0.557 v 7.991 h -1.068 v -9.404 h 1.068 v 0.463 c 0.361,-0.358 0.807,-0.662 1.459,-0.662 1.17,0 1.602,0.949 1.602,2.511 v 7.093 h -1.067 z"
       id="path59"
       inkscape:connector-curvature="0"
       style="fill:#7a7c7e" /></g></svg>