<?xml version="1.0" encoding="iso-8859-1"?>
<!-- Generator: Adobe Illustrator 19.0.0, SVG Export Plug-In . SVG Version: 6.00 Build 0)  -->
<svg version="1.1" id="Layer_1" xmlns="http://www.w3.org/2000/svg" xmlns:xlink="http://www.w3.org/1999/xlink" x="0px" y="0px"
	 viewBox="0 0 504.123 504.123" style="enable-background:new 0 0 504.123 504.123;" xml:space="preserve">
<polygon style="fill:#CC8342;" points="433.475,399.384 252.062,504.123 70.648,399.384 70.648,189.889 252.062,85.157 
	433.475,189.889 "/>
<polyline style="fill:#A86743;" points="252.062,85.157 433.475,189.889 433.475,399.384 252.062,504.123 "/>
<polygon style="fill:#4F2A19;" points="70.648,189.889 70.648,190.015 252.062,294.754 433.475,190.015 433.475,189.889 
	252.062,85.157 "/>
<polyline style="fill:#30150A;" points="252.062,294.754 433.475,190.015 433.475,189.889 252.062,85.157 "/>
<path style="fill:#04A6AA;" d="M164.612,104.188l67.773,67.773c10.862,10.878,28.491,10.878,39.337,0l67.773-67.773
	c10.878-10.862,10.878-28.475,0-39.337c-10.847-10.878-28.475-10.878-39.353,0l-27.199,27.215V20.858
	C272.943,9.334,263.586,0,252.069,0c-11.532,0-20.866,9.342-20.866,20.858v71.2l-27.238-27.215
	c-5.419-5.427-12.556-8.153-19.661-8.153c-7.113,0-14.249,2.725-19.677,8.153C153.758,75.705,153.758,93.326,164.612,104.188z"/>
<path style="fill:#15CC93;" d="M232.385,171.953c10.862,10.878,28.491,10.878,39.337,0l60.826-60.802l-39.353-39.353l-20.252,20.259
	V51.523l-39.652-39.629c-1.308,2.725-2.103,5.742-2.103,8.972v71.2l-27.238-27.215c-5.419-5.427-12.556-8.153-19.661-8.153
	c-7.113,0-14.249,2.725-19.677,8.153c-10.862,10.862-10.862,28.475,0,39.337L232.385,171.953z"/>
<g>
</g>
<g>
</g>
<g>
</g>
<g>
</g>
<g>
</g>
<g>
</g>
<g>
</g>
<g>
</g>
<g>
</g>
<g>
</g>
<g>
</g>
<g>
</g>
<g>
</g>
<g>
</g>
<g>
</g>
</svg>
