<?xml version="1.0" encoding="iso-8859-1"?>
<!-- Generator: Adobe Illustrator 19.0.0, SVG Export Plug-In . SVG Version: 6.00 Build 0)  -->
<svg version="1.1" id="Capa_1" xmlns="http://www.w3.org/2000/svg" xmlns:xlink="http://www.w3.org/1999/xlink" x="0px" y="0px"
	 viewBox="0 0 512 512" style="enable-background:new 0 0 512 512;" xml:space="preserve">
<path id="SVGCleanerId_0" style="fill:#FF8828;" d="M149.678,103.599H11.775C5.273,103.599,0,108.87,0,115.375v148.768h56.033
	v13.592c0,13.358,10.829,24.187,24.187,24.187s24.187-10.829,24.187-24.187v-13.592h56.033c0-6.93,0-50.081,0-57.119h-13.592
	c-13.358,0-24.187-10.829-24.187-24.186c0-13.358,10.829-24.187,24.187-24.187h13.592v-8.855V114.36
	C160.44,108.417,155.622,103.599,149.678,103.599z"/>
<g>
	<path id="SVGCleanerId_0_1_" style="fill:#FF8828;" d="M149.678,103.599H11.775C5.273,103.599,0,108.87,0,115.375v148.768h56.033
		v13.592c0,13.358,10.829,24.187,24.187,24.187s24.187-10.829,24.187-24.187v-13.592h56.033c0-6.93,0-50.081,0-57.119h-13.592
		c-13.358,0-24.187-10.829-24.187-24.186c0-13.358,10.829-24.187,24.187-24.187h13.592v-8.855V114.36
		C160.44,108.417,155.622,103.599,149.678,103.599z"/>
</g>
<path style="fill:#ED6E18;" d="M32.438,103.599H11.775C5.273,103.599,0,108.87,0,115.375v148.768h20.663V115.375
	C20.663,108.87,25.936,103.599,32.438,103.599z"/>
<path style="fill:#E04E4B;" d="M310.118,262.077c-15.851,0-28.056,0-45.271,0v-13.593c0-13.357-10.829-24.186-24.187-24.186
	s-24.187,10.829-24.187,24.186v13.593c-7.829,0-51.781,0-58.099,0v55.051h13.592c13.358,0,24.187,10.829,24.187,24.187
	s-10.829,24.186-24.187,24.186h-13.592v55.053h150.73c6.504,0,11.776-5.273,11.776-11.776c0-3.645,0-134.286,0-135.94
	C320.881,266.895,316.063,262.077,310.118,262.077z"/>
<path style="fill:#49B5CE;" d="M174.033,317.128H160.44v-55.051h-56.033v13.592c0,13.358-10.829,24.187-24.187,24.187
	s-24.187-10.829-24.187-24.187v-13.592H0v146.702c0,6.504,5.273,11.776,11.775,11.776H160.44v-55.053h13.592
	c13.358,0,24.187-10.828,24.187-24.186S187.391,317.128,174.033,317.128z"/>
<path style="fill:#34A4B7;" d="M20.663,408.778V262.077H0v146.702c0,6.504,5.273,11.776,11.775,11.776h20.663
	C25.936,420.555,20.663,415.282,20.663,408.778z"/>
<path style="fill:#3BBC56;" d="M509.243,203.114L416.887,93.286c-1.835-2.183-5.095-2.465-7.278-0.629l-38.183,32.107l-8.748-10.403
	c-4.606-5.479-11.359-8.621-18.524-8.621c-5.678,0-11.202,2.015-15.554,5.675c-10.206,8.584-11.527,23.872-2.945,34.079
	l8.748,10.403l-38.181,32.107c-2.183,1.836-2.465,5.095-0.629,7.278l29.413,34.979c1.837,2.185,5.1,2.462,7.279,0.629
	c6.686-5.623,11.801-11.099,22.004-11.099c14.147,0,25.336,12.092,24.11,26.27c-1.417,16.403-16.283,19.347-16.803,25.361
	c-0.254,2.937-1.108,1.034,30.608,38.749c1.836,2.183,5.097,2.465,7.278,0.628l108.324-91.092
	C512.777,215.527,513.422,208.084,509.243,203.114z"/>
<path style="fill:#31A845;" d="M371.628,124.594l-0.202,0.17l-8.748-10.403c-4.606-5.479-11.359-8.621-18.524-8.621
	c-5.678,0-11.202,2.015-15.554,5.675c-10.206,8.584-11.527,23.872-2.945,34.079l8.748,10.403l-38.181,32.107
	c-2.183,1.836-2.465,5.095-0.629,7.278l29.413,34.979c1.837,2.185,5.1,2.462,7.279,0.629c6.686-5.623,11.801-11.099,22.004-11.099
	c14.147,0,25.336,12.092,24.11,26.27c-1.417,16.403-16.283,19.347-16.803,25.361c-0.254,2.937-1.108,1.034,30.608,38.749
	c1.836,2.183,5.097,2.465,7.278,0.628l68.789-57.846C401.856,252.356,353.805,188.844,371.628,124.594z"/>
<g>
</g>
<g>
</g>
<g>
</g>
<g>
</g>
<g>
</g>
<g>
</g>
<g>
</g>
<g>
</g>
<g>
</g>
<g>
</g>
<g>
</g>
<g>
</g>
<g>
</g>
<g>
</g>
<g>
</g>
</svg>
