<?xml version="1.0" encoding="iso-8859-1"?>
<!-- Generator: Adobe Illustrator 19.0.0, SVG Export Plug-In . SVG Version: 6.00 Build 0)  -->
<svg version="1.1" id="Layer_1" xmlns="http://www.w3.org/2000/svg" xmlns:xlink="http://www.w3.org/1999/xlink" x="0px" y="0px"
	 viewBox="0 0 398 398" style="enable-background:new 0 0 398 398;" xml:space="preserve">
<g transform="translate(9 18)">
	<path style="fill:#F9C13C;" d="M152.6,260.8l-98.8,98.8C41,372.4,20.6,372.4,8.2,360s-12.4-32.8,0.4-45.6l98.8-98.8"/>
	<path style="fill:#E6AE31;" d="M152.6,260.8l-98.8,98.8C41,372.4,20.6,372.4,8.2,360l121.6-121.6L152.6,260.8z"/>
	<path style="fill:#B98915;" d="M30.6,377.2c-10.8,0-20.8-4-28-11.6C-5,358-9,348-9,337.2s4.4-20.8,12-28.4l98.8-98.8l11.2,11.2
		L14.2,320C9.4,324.8,7,330.8,7,337.2c0,6.4,2.4,12.4,6.8,16.8s10.4,6.8,16.8,6.8l0,0c6.4,0,12.8-2.8,17.2-7.2l98.8-98.8l11.2,11.2
		l-98.4,99.2C51.8,372.8,41.8,377.2,30.6,377.2C31,377.2,30.6,377.2,30.6,377.2z"/>
	<circle style="fill:#9CE0FF;" cx="237" cy="136.8" r="144"/>
	<path style="fill:#89D6FA;" d="M169,254.4c65.2,37.6,148.4,15.2,185.6-49.6c37.6-65.2,15.2-148.4-49.6-185.6
		C366.6,136.8,304.6,220.8,169,254.4z"/>
	<path style="fill:#61A1DD;" d="M237,288.8c-84,0-152-68-152-152s68-152,152-152s152,68,152,152S321,288.8,237,288.8z M237,0.8
		c-74.8,0-136,61.2-136,136s61.2,136,136,136s136-61.2,136-136S311.8,0.8,237,0.8z"/>
	<g>
		<path style="fill:#FFFFFF;" d="M151.8,85.6c-1.6,0-3.2-0.4-4.8-1.6c-3.6-2.8-4.4-7.6-1.6-11.2L149,68c2.8-3.6,7.6-4.4,11.2-1.6
			c3.6,2.8,4.4,7.6,1.6,11.2l-3.6,4.8C156.6,84.4,154.2,85.6,151.8,85.6z"/>
		<path style="fill:#FFFFFF;" d="M167,221.2c-2,0-4-0.8-5.2-2C138.2,198,125,168,125,136.8c0-10,1.2-19.6,4-28.4
			c1.2-4.4,5.6-6.8,10-5.6c4.4,1.2,6.8,5.6,5.6,10c-2,7.6-3.2,15.6-3.2,24c0,26.8,11.6,52.4,31.2,70.4c3.2,2.8,3.6,8,0.4,11.2
			C171.4,220.4,169,221.2,167,221.2z"/>
	</g>
</g>
<g>
</g>
<g>
</g>
<g>
</g>
<g>
</g>
<g>
</g>
<g>
</g>
<g>
</g>
<g>
</g>
<g>
</g>
<g>
</g>
<g>
</g>
<g>
</g>
<g>
</g>
<g>
</g>
<g>
</g>
</svg>
